{
    "asset" : {
        "generator" : "Khronos Blender glTF 2.0 I/O",
        "version" : "2.0"
    },
    "scene" : 0,
    "scenes" : [
        {
            "name" : "Scene",
            "nodes" : [
                0
            ]
        }
    ],
    "nodes" : [
        {
            "name" : "Cylinder",
            "mesh" : 0
        }
    ],
    "meshes" : [
        {
            "primitives" : [
                {
                    "indices" : 2,
                    "attributes" : {
                        "NORMAL" : 0,
                        "POSITION" : 1
                    }
                }
            ],
            "name" : "Cylinder.001"
        }
    ],
    "accessors" : [
        {
            "type" : "VEC3",
            "count" : 568,
            "bufferView" : 0,
            "componentType" : 5126
        },
        {
            "type" : "VEC3",
            "min" : [
                -0.09433267265558243,
                -0.0004525184631347656,
                -0.11516124755144119
            ],
            "componentType" : 5126,
            "count" : 568,
            "max" : [
                0.09441955387592316,
                0.9972673654556274,
                0.08445009589195251
            ],
            "bufferView" : 1
        },
        {
            "type" : "SCALAR",
            "count" : 570,
            "bufferView" : 2,
            "componentType" : 5123
        }
    ],
    "bufferViews" : [
        {
            "byteLength" : 6816,
            "byteOffset" : 0,
            "buffer" : 0
        },
        {
            "byteLength" : 6816,
            "byteOffset" : 6816,
            "buffer" : 0
        },
        {
            "byteLength" : 1140,
            "byteOffset" : 13632,
            "buffer" : 0
        }
    ],
    "buffers" : [
        {
            "byteLength" : 14772,
            "uri" : "arrow.bin"
        }
    ]
}
